<svg xmlns="http://www.w3.org/2000/svg" viewBox="0 0 1000 520">
  <defs>
    <linearGradient id="pilotHull" x1="0" x2="1">
      <stop offset="0" stop-color="#1f2a30"/>
      <stop offset="0.55" stop-color="#3e555d"/>
      <stop offset="1" stop-color="#131b20"/>
    </linearGradient>
  </defs>
  <g stroke-linecap="round" stroke-linejoin="round">
    <path d="M92 334 C190 374 726 374 876 326 C928 310 960 282 978 248 C794 266 556 258 308 258 C206 258 112 274 42 304 C52 318 68 328 92 334 Z" fill="url(#pilotHull)" stroke="#0d1418" stroke-width="12"/>
    <path d="M300 258 L388 178 L560 178 L656 258 Z" fill="#d9e3df" stroke="#10181d" stroke-width="9"/>
    <path d="M412 174 L460 126 L544 128 L560 178" fill="#f2f4ec" stroke="#10181d" stroke-width="8"/>
    <path d="M502 122 L502 70 M502 96 L612 132" stroke="#e7f0ed" stroke-width="7"/>
    <path d="M96 306 C288 276 640 276 966 248" fill="none" stroke="#e86b43" stroke-width="9"/>
    <path d="M320 214 L638 214" stroke="#8ad7c1" stroke-width="6"/>
  </g>
</svg>
