<svg xmlns="http://www.w3.org/2000/svg" viewBox="0 0 1400 620">
  <defs>
    <linearGradient id="tankerHull" x1="0" x2="1">
      <stop offset="0" stop-color="#20272b"/>
      <stop offset="0.38" stop-color="#394347"/>
      <stop offset="1" stop-color="#151b1f"/>
    </linearGradient>
    <linearGradient id="deck" x1="0" x2="1">
      <stop offset="0" stop-color="#d9e1dc"/>
      <stop offset="1" stop-color="#97aaa8"/>
    </linearGradient>
  </defs>
  <g stroke-linecap="round" stroke-linejoin="round">
    <path d="M86 356 C168 408 1098 412 1282 360 C1330 346 1362 316 1380 284 C1054 304 666 300 70 304 C70 326 74 342 86 356 Z" fill="url(#tankerHull)" stroke="#0f1518" stroke-width="14"/>
    <path d="M134 300 C392 290 862 292 1360 284" fill="none" stroke="#e2eee9" stroke-opacity="0.7" stroke-width="7"/>
    <rect x="342" y="244" width="572" height="54" rx="8" fill="#556066" stroke="#172025" stroke-width="8"/>
    <path d="M936 296 L1014 210 L1174 210 L1242 296 Z" fill="#d6ded9" stroke="#172025" stroke-width="9"/>
    <rect x="1026" y="166" width="106" height="50" rx="6" fill="#f0f0e8" stroke="#172025" stroke-width="8"/>
    <path d="M1084 160 L1084 88 M1084 116 L1192 160" fill="none" stroke="#f0f0e8" stroke-width="8"/>
    <path d="M224 276 L224 230 M318 274 L318 228 M412 272 L412 226 M506 272 L506 226 M600 272 L600 226 M694 274 L694 228 M788 276 L788 230" stroke="#c7d0cc" stroke-width="6"/>
    <path d="M160 336 L1272 332" stroke="#d8b46a" stroke-opacity="0.65" stroke-width="6"/>
  </g>
</svg>
